<svg width="48" height="48" viewBox="0 0 48 48" fill="none" xmlns="http://www.w3.org/2000/svg">
<path d="M11.5 24.0215C11.5057 24.4118 11.6634 24.7846 11.9395 25.0606L31.4395 44.5606C31.5777 44.7045 31.7433 44.8194 31.9264 44.8986C32.1096 44.9778 32.3068 45.0196 32.5063 45.0217C32.7059 45.0237 32.9039 44.9859 33.0886 44.9104C33.2734 44.835 33.4412 44.7235 33.5824 44.5823C33.7235 44.4412 33.835 44.2734 33.9105 44.0886C33.9859 43.9038 34.0237 43.7059 34.0217 43.5063C34.0196 43.3068 33.9778 43.1096 33.8986 42.9264C33.8195 42.7432 33.7045 42.5777 33.5606 42.4395L15.1211 24L33.5606 5.56057C33.7045 5.42235 33.8195 5.2568 33.8986 5.0736C33.9778 4.89041 34.0196 4.69326 34.0217 4.4937C34.0237 4.29415 33.9859 4.09619 33.9104 3.91143C33.835 3.72666 33.7235 3.55881 33.5824 3.41769C33.4412 3.27657 33.2734 3.16503 33.0886 3.0896C32.9039 3.01417 32.7059 2.97636 32.5063 2.97839C32.3068 2.98041 32.1096 3.02224 31.9264 3.10141C31.7432 3.18059 31.5777 3.29552 31.4395 3.43948L11.9395 22.9395C11.7976 23.0813 11.6856 23.2501 11.6101 23.436C11.5347 23.6218 11.4972 23.8209 11.5 24.0215Z" fill="#4F4F4F"/>
</svg>
