<svg width="48" height="48" viewBox="0 0 48 48" fill="none" xmlns="http://www.w3.org/2000/svg">
<path d="M36.5001 23.9785C36.4944 23.5882 36.3367 23.2154 36.0606 22.9394L16.5606 3.43944C16.4224 3.29549 16.2569 3.18055 16.0737 3.10138C15.8905 3.0222 15.6933 2.98038 15.4938 2.97835C15.2942 2.97632 15.0963 3.01413 14.9115 3.08956C14.7267 3.165 14.5589 3.27654 14.4178 3.41766C14.2766 3.55877 14.1651 3.72663 14.0897 3.91139C14.0142 4.09616 13.9764 4.29411 13.9785 4.49367C13.9805 4.69323 14.0223 4.89038 14.1015 5.07357C14.1807 5.25676 14.2956 5.42232 14.4395 5.56054L32.879 24L14.4395 42.4394C14.2956 42.5776 14.1807 42.7432 14.1015 42.9264C14.0223 43.1096 13.9805 43.3067 13.9785 43.5063C13.9764 43.7059 14.0142 43.9038 14.0897 44.0886C14.1651 44.2733 14.2766 44.4412 14.4178 44.5823C14.5589 44.7234 14.7267 44.835 14.9115 44.9104C15.0963 44.9858 15.2942 45.0236 15.4938 45.0216C15.6933 45.0196 15.8905 44.9778 16.0737 44.8986C16.2569 44.8194 16.4224 44.7045 16.5606 44.5605L36.0606 25.0605C36.2025 24.9187 36.3145 24.7499 36.39 24.564C36.4655 24.3782 36.5029 24.1791 36.5001 23.9785Z" fill="#4F4F4F"/>
</svg>
