<svg width="24" height="24" viewBox="0 0 24 24" fill="none" xmlns="http://www.w3.org/2000/svg">
<path d="M1.75 2.99998C1.65062 2.99858 1.55194 3.01694 1.45972 3.054C1.36749 3.09106 1.28355 3.14608 1.21277 3.21586C1.142 3.28565 1.08579 3.3688 1.04743 3.46049C1.00907 3.55219 0.989319 3.65059 0.989319 3.74998C0.989319 3.84938 1.00907 3.94778 1.04743 4.03947C1.08579 4.13117 1.142 4.21432 1.21277 4.2841C1.28355 4.35389 1.36749 4.40891 1.45972 4.44597C1.55194 4.48303 1.65062 4.50139 1.75 4.49998H3.12793C3.4919 4.49998 3.79529 4.75145 3.86426 5.10936L4.01367 5.89061L5.62598 14.3584C5.91753 15.8861 7.26357 17 8.81934 17H18.1807C19.7364 17 21.083 15.8866 21.374 14.3584L22.9863 5.89061C23.007 5.78219 23.0035 5.67054 22.9761 5.56363C22.9486 5.45672 22.898 5.35719 22.8276 5.27212C22.7573 5.18705 22.6691 5.11856 22.5692 5.07152C22.4694 5.02448 22.3604 5.00005 22.25 4.99998H5.37012L5.33789 4.82909C5.13633 3.77275 4.20349 2.99998 3.12793 2.99998H1.75ZM5.65625 6.49998H21.3438L19.9004 14.0781C19.7424 14.9079 19.0259 15.5 18.1807 15.5H8.81934C7.9744 15.5 7.25839 14.9079 7.09961 14.0781V14.0771L5.65625 6.49998ZM10 18C9.60218 18 9.22064 18.158 8.93934 18.4393C8.65804 18.7206 8.5 19.1022 8.5 19.5C8.5 19.8978 8.65804 20.2793 8.93934 20.5606C9.22064 20.8419 9.60218 21 10 21C10.3978 21 10.7794 20.8419 11.0607 20.5606C11.342 20.2793 11.5 19.8978 11.5 19.5C11.5 19.1022 11.342 18.7206 11.0607 18.4393C10.7794 18.158 10.3978 18 10 18ZM17 18C16.6022 18 16.2206 18.158 15.9393 18.4393C15.658 18.7206 15.5 19.1022 15.5 19.5C15.5 19.8978 15.658 20.2793 15.9393 20.5606C16.2206 20.8419 16.6022 21 17 21C17.3978 21 17.7794 20.8419 18.0607 20.5606C18.342 20.2793 18.5 19.8978 18.5 19.5C18.5 19.1022 18.342 18.7206 18.0607 18.4393C17.7794 18.158 17.3978 18 17 18Z" fill="#4F4F4F"/>
</svg>
