<svg width="45" height="25" viewBox="0 0 45 25" fill="none" xmlns="http://www.w3.org/2000/svg">
<path d="M33.4844 0.984375C33.1859 0.984448 32.8941 1.07358 32.6466 1.24038C32.399 1.40717 32.2068 1.64403 32.0946 1.92067C31.9824 2.1973 31.9553 2.50112 32.0167 2.79325C32.0781 3.08538 32.2253 3.35254 32.4395 3.56055L39.8789 11H2.5C2.30123 10.9972 2.10389 11.0339 1.91944 11.108C1.73498 11.1822 1.5671 11.2922 1.42555 11.4318C1.28399 11.5713 1.17159 11.7376 1.09487 11.921C1.01815 12.1044 0.978638 12.3012 0.978638 12.5C0.978638 12.6988 1.01815 12.8956 1.09487 13.079C1.17159 13.2624 1.28399 13.4287 1.42555 13.5682C1.5671 13.7078 1.73498 13.8178 1.91944 13.892C2.10389 13.9661 2.30123 14.0028 2.5 14H39.8789L32.4395 21.4395C32.2955 21.5777 32.1806 21.7432 32.1014 21.9264C32.0222 22.1096 31.9804 22.3068 31.9784 22.5063C31.9763 22.7059 32.0141 22.9038 32.0896 23.0886C32.165 23.2734 32.2766 23.4412 32.4177 23.5823C32.5588 23.7234 32.7266 23.835 32.9114 23.9104C33.0962 23.9859 33.2941 24.0237 33.4937 24.0216C33.6932 24.0196 33.8904 23.9778 34.0736 23.8986C34.2568 23.8194 34.4223 23.7045 34.5605 23.5605L44.5605 13.5605C44.8417 13.2792 44.9997 12.8978 44.9997 12.5C44.9997 12.1022 44.8417 11.7208 44.5605 11.4395L34.5605 1.43945C34.4207 1.29547 34.2534 1.181 34.0686 1.10283C33.8837 1.02466 33.6851 0.984383 33.4844 0.984375Z" fill="white"/>
</svg>
