<svg width="20" height="21" viewBox="0 0 20 21" fill="none" xmlns="http://www.w3.org/2000/svg">
<path d="M19.9495 5.8976C19.9334 5.06807 19.7761 4.24735 19.4845 3.4706C19.227 2.80599 18.8337 2.2024 18.3297 1.69841C17.8257 1.19442 17.2221 0.801105 16.5575 0.543602C15.7806 0.25251 14.96 0.0954448 14.1305 0.0791016C13.06 0.0286016 12.72 0.0166016 10.004 0.0166016C7.288 0.0166016 6.948 0.0286016 5.8815 0.0751016C5.05215 0.0913321 4.2316 0.248577 3.455 0.540102C2.78593 0.791214 2.18017 1.18618 1.6805 1.6971C1.17201 2.19642 0.77794 2.80015 0.5255 3.4666C0.234303 4.24329 0.0770694 5.06378 0.0605 5.8931C0.012 6.9666 0 7.3046 0 10.0206C0 12.7366 0.012 13.0766 0.0585 14.1431C0.0746254 14.9726 0.231872 15.7934 0.5235 16.5701C0.781008 17.2347 1.17433 17.8382 1.67833 18.3421C2.18232 18.846 2.78591 19.2392 3.4505 19.4966C4.22735 19.7879 5.04801 19.9451 5.8775 19.9616C6.944 20.0086 7.2845 20.0201 10 20.0201C12.7155 20.0201 13.056 20.0086 14.1225 19.9616C14.9519 19.9454 15.7724 19.7882 16.549 19.4966C17.2137 19.2395 17.8174 18.8464 18.3214 18.3425C18.8253 17.8385 19.2184 17.2348 19.4755 16.5701C19.7667 15.7932 19.9239 14.9726 19.9405 14.1431C19.9875 13.0761 19.999 12.7361 19.999 10.0206C19.999 7.3051 19.996 6.9666 19.9495 5.8976ZM18.148 14.0666C18.1415 14.7005 18.0251 15.3285 17.804 15.9226C17.6373 16.3543 17.3821 16.7463 17.0549 17.0735C16.7277 17.4007 16.3357 17.6559 15.904 17.8226C15.3098 18.0434 14.6819 18.1597 14.048 18.1666C12.993 18.2136 12.6765 18.2251 10.0075 18.2251C7.3385 18.2251 7.018 18.2136 5.967 18.1666C5.33309 18.1602 4.70511 18.0438 4.111 17.8226C3.67642 17.6634 3.28333 17.4082 2.961 17.0761C2.62972 16.7531 2.37469 16.3602 2.2145 15.9261C1.99391 15.3307 1.87803 14.7016 1.872 14.0666C1.825 13.0116 1.8135 12.6951 1.8135 10.0261C1.8135 7.3571 1.825 7.0366 1.872 5.9856C1.87868 5.35237 1.99507 4.72508 2.216 4.1316C2.37505 3.6961 2.63159 3.30274 2.966 2.9816C3.28892 2.65019 3.68183 2.39514 4.116 2.2351C4.71025 2.01445 5.33814 1.89807 5.972 1.8911C7.027 1.8441 7.3435 1.8326 10.0125 1.8326C12.6815 1.8326 13.002 1.8446 14.053 1.8911C14.6869 1.89761 15.3149 2.014 15.909 2.2351C16.3436 2.39425 16.7367 2.64942 17.059 2.9816C17.3903 3.30462 17.6453 3.6975 17.8055 4.1316C18.0262 4.72585 18.1425 5.35374 18.1495 5.9876C18.1965 7.0426 18.208 7.3591 18.208 10.0281C18.208 12.6971 18.195 13.0101 18.148 14.0666Z" fill="white"/>
<path d="M10.004 4.88184C8.98762 4.88144 7.99394 5.18247 7.14865 5.74686C6.30337 6.31124 5.64444 7.11363 5.25522 8.05253C4.86599 8.99143 4.76394 10.0247 4.96199 11.0216C5.16003 12.0185 5.64927 12.9343 6.36782 13.6531C7.08638 14.3719 8.00196 14.8615 8.99879 15.06C9.99562 15.2584 11.0289 15.1567 11.968 14.7679C12.907 14.379 13.7096 13.7204 14.2744 12.8753C14.8391 12.0303 15.1405 11.0367 15.1405 10.0203C15.1401 8.65799 14.5989 7.35152 13.6357 6.38801C12.6726 5.4245 11.3663 4.88276 10.004 4.88184ZM10.004 13.3538C9.3447 13.3538 8.70019 13.1583 8.152 12.792C7.60381 12.4257 7.17655 11.9051 6.92424 11.296C6.67194 10.6869 6.60593 10.0166 6.73455 9.37C6.86318 8.72337 7.18066 8.12939 7.64686 7.66319C8.11306 7.19699 8.70703 6.87951 9.35366 6.75089C10.0003 6.62226 10.6706 6.68828 11.2797 6.94058C11.8888 7.19289 12.4094 7.62015 12.7757 8.16834C13.142 8.71653 13.3375 9.36103 13.3375 10.0203C13.3374 10.9044 12.9861 11.7522 12.361 12.3773C11.7359 13.0025 10.8881 13.3537 10.004 13.3538Z" fill="white"/>
<path d="M16.5455 4.67803C16.5455 4.91537 16.4751 5.14737 16.3433 5.34471C16.2114 5.54205 16.024 5.69586 15.8047 5.78668C15.5854 5.87751 15.3442 5.90127 15.1114 5.85497C14.8786 5.80867 14.6648 5.69438 14.497 5.52656C14.3291 5.35873 14.2149 5.14491 14.1686 4.91214C14.1222 4.67936 14.146 4.43808 14.2368 4.21881C14.3277 3.99954 14.4815 3.81212 14.6788 3.68026C14.8761 3.54841 15.1082 3.47803 15.3455 3.47803C15.6638 3.47803 15.969 3.60445 16.194 3.8295C16.4191 4.05454 16.5455 4.35977 16.5455 4.67803Z" fill="white"/>
</svg>
