<svg width="82" height="44" viewBox="0 0 82 44" fill="none" xmlns="http://www.w3.org/2000/svg">
<path d="M69.4254 43.5949C76.3326 43.5949 82 37.9924 82 31.1643H75.6241C75.6241 34.6659 72.7905 37.4671 69.2483 37.4671C65.7062 37.4671 62.8725 34.6659 62.8725 31.1643V24.8614H69.2483C76.1555 24.8614 81.8229 19.2588 81.8229 12.4307V0H69.2483C62.3412 0 56.6738 5.60256 56.6738 12.4307V31.1643C56.8509 37.9924 62.3412 43.5949 69.4254 43.5949ZM63.0496 12.4307C63.0496 8.92908 65.8833 6.1278 69.4254 6.1278H75.8013V12.4307C75.8013 15.9323 72.9676 18.7336 69.4254 18.7336H63.0496V12.4307Z" fill="#888440"/>
<path d="M41.2656 43.5949C48.1728 43.4199 53.663 37.9924 53.663 31.1642V0H47.4643V31.1642C47.4643 34.6659 44.4535 37.4671 40.9114 37.4671C37.5464 37.2921 34.8898 34.4908 34.8898 30.9892V0H28.3369V30.9892C28.3369 37.9924 34.1814 43.77 41.2656 43.5949Z" fill="#888440"/>
<path d="M12.5745 37.4671C9.0324 37.4671 6.1987 34.6659 6.1987 31.1643H0C0 37.9924 5.66739 43.5949 12.5745 43.5949C19.4816 43.5949 25.149 37.9924 25.149 31.1643C25.149 24.3361 19.4816 21.885 12.5745 18.7336C9.38661 17.3329 6.37581 15.9323 6.37581 12.4307C6.37581 8.92908 9.2095 6.1278 12.7516 6.1278C16.2937 6.1278 19.1274 8.92908 19.1274 12.4307H25.5032C25.5032 5.60256 19.8359 0 12.9287 0C5.66739 0 0 5.60256 0 12.4307C0 19.2588 5.66739 21.7099 12.5745 24.8614C15.7624 26.262 18.9503 27.6627 18.9503 31.1643C18.9503 34.6659 16.1166 37.4671 12.5745 37.4671Z" fill="#888440"/>
</svg>
