<svg width="24" height="24" viewBox="0 0 24 24" fill="none" xmlns="http://www.w3.org/2000/svg">
<path d="M17.2422 5.99219C17.0929 5.99222 16.9471 6.03679 16.8233 6.12019C16.6995 6.20358 16.6034 6.32202 16.5473 6.46033C16.4912 6.59865 16.4776 6.75056 16.5084 6.89662C16.5391 7.04269 16.6127 7.17627 16.7197 7.28027L20.4395 11H1.75C1.65062 10.9986 1.55194 11.017 1.45972 11.054C1.36749 11.0911 1.28355 11.1461 1.21277 11.2159C1.142 11.2857 1.08579 11.3688 1.04743 11.4605C1.00907 11.5522 0.989319 11.6506 0.989319 11.75C0.989319 11.8494 1.00907 11.9478 1.04743 12.0395C1.08579 12.1312 1.142 12.2143 1.21277 12.2841C1.28355 12.3539 1.36749 12.4089 1.45972 12.446C1.55194 12.483 1.65062 12.5014 1.75 12.5H20.4395L16.7197 16.2197C16.6477 16.2888 16.5903 16.3716 16.5507 16.4632C16.5111 16.5548 16.4902 16.6534 16.4892 16.7532C16.4882 16.8529 16.5071 16.9519 16.5448 17.0443C16.5825 17.1367 16.6383 17.2206 16.7088 17.2912C16.7794 17.3617 16.8633 17.4175 16.9557 17.4552C17.0481 17.4929 17.1471 17.5118 17.2468 17.5108C17.3466 17.5098 17.4452 17.4889 17.5368 17.4493C17.6284 17.4097 17.7112 17.3523 17.7803 17.2803L22.7803 12.2803C22.9209 12.1396 22.9999 11.9489 22.9999 11.75C22.9999 11.5511 22.9209 11.3604 22.7803 11.2197L17.7803 6.21973C17.7104 6.14773 17.6267 6.0905 17.5343 6.05142C17.4419 6.01233 17.3425 5.99219 17.2422 5.99219V5.99219Z" fill="white"/>
</svg>
