<svg width="20" height="15" viewBox="0 0 20 15" fill="none" xmlns="http://www.w3.org/2000/svg">
<path d="M19.588 2.20614C19.4736 1.78395 19.2507 1.39907 18.9414 1.08977C18.6321 0.780473 18.2472 0.557538 17.825 0.443137C16.26 0.0151367 10 0.0151367 10 0.0151367C10 0.0151367 3.74 0.0151367 2.175 0.427137C1.75321 0.547512 1.36948 0.774389 1.06072 1.08595C0.751961 1.39751 0.52856 1.78327 0.412 2.20614C0 3.77114 0 7.01664 0 7.01664C0 7.01664 0 10.2786 0.412 11.8271C0.526447 12.2493 0.749397 12.6342 1.05869 12.9434C1.36798 13.2527 1.75284 13.4757 2.175 13.5901C3.7565 14.0186 10.0005 14.0186 10.0005 14.0186C10.0005 14.0186 16.2605 14.0186 17.8255 13.6066C18.2476 13.4922 18.6324 13.2694 18.9417 12.9602C19.251 12.651 19.474 12.2662 19.5885 11.8441C20 10.2786 20 7.03314 20 7.03314C20 7.03314 20.0165 3.77114 19.588 2.20614ZM8.0065 10.0151V4.01864L13.2125 7.01864L8.0065 10.0151Z" fill="white"/>
</svg>
