<svg width="20" height="21" fill="none" xmlns="http://www.w3.org/2000/svg"><path d="M19.95 5.898a7.31 7.31 0 00-.465-2.427A5.124 5.124 0 0016.558.544 7.328 7.328 0 0014.13.079C13.06.03 12.72.017 10.005.017S6.948.029 5.882.075A7.32 7.32 0 003.455.54a4.881 4.881 0 00-1.774 1.157 4.925 4.925 0 00-1.156 1.77A7.329 7.329 0 00.06 5.893C.012 6.967 0 7.305 0 10.021s.012 3.056.059 4.122c.016.83.173 1.65.464 2.427a5.123 5.123 0 002.928 2.927 7.327 7.327 0 002.427.465c1.066.047 1.407.058 4.122.058 2.716 0 3.056-.011 4.123-.058a7.309 7.309 0 002.426-.465 5.118 5.118 0 002.927-2.927 7.333 7.333 0 00.465-2.427c.047-1.067.058-1.407.058-4.122 0-2.716-.003-3.054-.05-4.123zm-1.802 8.169a5.483 5.483 0 01-.344 1.856 3.318 3.318 0 01-1.9 1.9 5.5 5.5 0 01-1.856.344c-1.055.047-1.371.058-4.04.058-2.67 0-2.99-.011-4.041-.058a5.478 5.478 0 01-1.856-.344 3.078 3.078 0 01-1.15-.747 3.11 3.11 0 01-.746-1.15 5.503 5.503 0 01-.343-1.86c-.047-1.054-.059-1.37-.059-4.04 0-2.669.012-2.99.059-4.04a5.48 5.48 0 01.344-1.854 3.04 3.04 0 01.75-1.15 3.105 3.105 0 011.15-.747 5.506 5.506 0 011.856-.344c1.055-.047 1.371-.058 4.04-.058 2.67 0 2.99.012 4.041.058a5.483 5.483 0 011.856.344c.435.16.828.414 1.15.747.331.323.586.715.746 1.15.221.594.337 1.222.345 1.856.047 1.055.058 1.371.058 4.04 0 2.67-.013 2.982-.06 4.039z" fill="#fff"/><path d="M10.004 4.882A5.138 5.138 0 1010 15.159a5.138 5.138 0 00.004-10.277zm0 8.472a3.333 3.333 0 110-6.667 3.333 3.333 0 010 6.667zm6.542-8.676a1.2 1.2 0 11-2.401 0 1.2 1.2 0 012.4 0z" fill="#fff"/></svg>