<svg width="24" height="24" fill="none" xmlns="http://www.w3.org/2000/svg"><path d="M7.5 3.5A5.511 5.511 0 002 9c0 2.048 1.544 3.976 3.426 5.954 1.882 1.978 4.198 3.98 6.044 5.826a.75.75 0 001.06 0c1.846-1.845 4.162-3.848 6.044-5.826C20.456 12.976 22 11.048 22 9c0-3.029-2.471-5.5-5.5-5.5-1.738 0-3.252.933-4.5 2.519C10.752 4.433 9.238 3.5 7.5 3.5zm0 1.5c1.464 0 2.683.78 3.866 2.65a.75.75 0 001.268 0C13.817 5.78 15.036 5 16.5 5c2.218 0 4 1.782 4 4 0 1.202-1.206 3.024-3.012 4.92-1.646 1.731-3.693 3.539-5.488 5.289-1.795-1.75-3.842-3.558-5.488-5.288C4.706 12.024 3.5 10.2 3.5 9c0-2.218 1.782-4 4-4z" fill="#4F4F4F"/></svg>