<svg width="82" height="44" fill="none" xmlns="http://www.w3.org/2000/svg"><path d="M69.425 43.595c6.908 0 12.575-5.603 12.575-12.43h-6.376c0 3.5-2.834 6.302-6.376 6.302-3.542 0-6.376-2.801-6.376-6.303v-6.303h6.376c6.907 0 12.575-5.602 12.575-12.43V0H69.248c-6.907 0-12.574 5.603-12.574 12.43v18.734c.177 6.828 5.667 12.43 12.751 12.43zM63.05 12.43c0-3.502 2.833-6.303 6.375-6.303h6.376v6.303c0 3.501-2.833 6.303-6.376 6.303H63.05V12.43zM41.266 43.595c6.907-.175 12.397-5.603 12.397-12.43V0h-6.199v31.164c0 3.502-3.01 6.303-6.553 6.303-3.365-.175-6.021-2.976-6.021-6.478V0h-6.553v30.99c0 7.002 5.844 12.78 12.929 12.605zm-28.691-6.128c-3.543 0-6.376-2.801-6.376-6.303H0c0 6.828 5.667 12.43 12.575 12.43 6.907 0 12.574-5.602 12.574-12.43 0-6.828-5.667-9.279-12.575-12.43-3.187-1.401-6.198-2.802-6.198-6.303 0-3.502 2.833-6.303 6.376-6.303 3.542 0 6.375 2.801 6.375 6.303h6.376C25.503 5.603 19.836 0 12.93 0 5.667 0 0 5.603 0 12.43c0 6.829 5.667 9.28 12.575 12.431 3.187 1.401 6.375 2.802 6.375 6.303 0 3.502-2.833 6.303-6.375 6.303z" fill="#888440"/></svg>