<svg width="24" height="24" fill="none" xmlns="http://www.w3.org/2000/svg"><path d="M12 2C9.247 2 7 4.247 7 7s2.247 5 5 5c2.752 0 5-2.247 5-5s-2.248-5-5-5zm0 1.5c1.942 0 3.5 1.558 3.5 3.5s-1.558 3.5-3.5 3.5A3.489 3.489 0 018.5 7c0-1.942 1.558-3.5 3.5-3.5zM5.99 14A2 2 0 004 15.99v.76c0 1.802 1.14 3.196 2.653 4.031C8.167 21.616 10.084 22 12 22c1.916 0 3.833-.384 5.347-1.219 1.29-.712 2.262-1.85 2.534-3.281H20v-1.51c0-1.09-.9-1.99-1.99-1.99H5.989zm0 1.5h12.02c.28 0 .491.21.491.49V16H18.5v.75c0 1.198-.673 2.054-1.878 2.719C15.417 20.134 13.71 20.5 12 20.5s-3.417-.366-4.622-1.031C6.173 18.804 5.5 17.948 5.5 16.75v-.76c0-.28.21-.49.49-.49z" fill="#4F4F4F"/></svg>